<mxfile host="app.diagrams.net" agent="Mozilla/5.0 (Windows NT 10.0; Win64; x64) AppleWebKit/537.36 (KHTML, like Gecko) Chrome/126.0.0.0 Safari/537.36 Edg/126.0.0.0" version="24.7.6">
  <diagram name="Page-1" id="KNU9SpJvPU2wU8JeDKuS">
    <mxGraphModel dx="1426" dy="759" grid="1" gridSize="10" guides="1" tooltips="1" connect="1" arrows="1" fold="1" page="1" pageScale="1" pageWidth="850" pageHeight="1100" math="0" shadow="0">
      <root>
        <mxCell id="0" />
        <mxCell id="1" parent="0" />
        <mxCell id="rflaLbUr40uzIL3F1Vz9-1" value="raw" style="sketch=0;points=[[0,0,0],[0.25,0,0],[0.5,0,0],[0.75,0,0],[1,0,0],[0,1,0],[0.25,1,0],[0.5,1,0],[0.75,1,0],[1,1,0],[0,0.25,0],[0,0.5,0],[0,0.75,0],[1,0.25,0],[1,0.5,0],[1,0.75,0]];outlineConnect=0;fontColor=#232F3E;fillColor=#7AA116;strokeColor=#ffffff;dashed=0;verticalLabelPosition=bottom;verticalAlign=top;align=center;html=1;fontSize=12;fontStyle=0;aspect=fixed;shape=mxgraph.aws4.resourceIcon;resIcon=mxgraph.aws4.s3;" vertex="1" parent="1">
          <mxGeometry y="600" width="78" height="78" as="geometry" />
        </mxCell>
        <mxCell id="rflaLbUr40uzIL3F1Vz9-2" value="conformed&lt;div&gt;processing&lt;/div&gt;" style="image;aspect=fixed;html=1;points=[];align=center;fontSize=12;image=img/lib/azure2/analytics/Azure_Databricks.svg;" vertex="1" parent="1">
          <mxGeometry x="130" y="605" width="69.26" height="75" as="geometry" />
        </mxCell>
        <mxCell id="rflaLbUr40uzIL3F1Vz9-7" style="edgeStyle=orthogonalEdgeStyle;rounded=0;orthogonalLoop=1;jettySize=auto;html=1;" edge="1" parent="1" source="rflaLbUr40uzIL3F1Vz9-3" target="rflaLbUr40uzIL3F1Vz9-6">
          <mxGeometry relative="1" as="geometry">
            <Array as="points">
              <mxPoint x="299" y="540" />
            </Array>
          </mxGeometry>
        </mxCell>
        <mxCell id="rflaLbUr40uzIL3F1Vz9-10" style="edgeStyle=orthogonalEdgeStyle;rounded=0;orthogonalLoop=1;jettySize=auto;html=1;" edge="1" parent="1" source="rflaLbUr40uzIL3F1Vz9-3" target="rflaLbUr40uzIL3F1Vz9-9">
          <mxGeometry relative="1" as="geometry" />
        </mxCell>
        <mxCell id="rflaLbUr40uzIL3F1Vz9-3" value="conformed" style="sketch=0;points=[[0,0,0],[0.25,0,0],[0.5,0,0],[0.75,0,0],[1,0,0],[0,1,0],[0.25,1,0],[0.5,1,0],[0.75,1,0],[1,1,0],[0,0.25,0],[0,0.5,0],[0,0.75,0],[1,0.25,0],[1,0.5,0],[1,0.75,0]];outlineConnect=0;fontColor=#232F3E;fillColor=#7AA116;strokeColor=#ffffff;dashed=0;verticalLabelPosition=bottom;verticalAlign=top;align=center;html=1;fontSize=12;fontStyle=0;aspect=fixed;shape=mxgraph.aws4.resourceIcon;resIcon=mxgraph.aws4.s3;" vertex="1" parent="1">
          <mxGeometry x="260" y="603.5" width="78" height="78" as="geometry" />
        </mxCell>
        <mxCell id="rflaLbUr40uzIL3F1Vz9-4" style="edgeStyle=orthogonalEdgeStyle;rounded=0;orthogonalLoop=1;jettySize=auto;html=1;entryX=-0.014;entryY=0.453;entryDx=0;entryDy=0;entryPerimeter=0;" edge="1" parent="1" source="rflaLbUr40uzIL3F1Vz9-1" target="rflaLbUr40uzIL3F1Vz9-2">
          <mxGeometry relative="1" as="geometry" />
        </mxCell>
        <mxCell id="rflaLbUr40uzIL3F1Vz9-5" style="edgeStyle=orthogonalEdgeStyle;rounded=0;orthogonalLoop=1;jettySize=auto;html=1;entryX=0;entryY=0.5;entryDx=0;entryDy=0;entryPerimeter=0;" edge="1" parent="1" source="rflaLbUr40uzIL3F1Vz9-2" target="rflaLbUr40uzIL3F1Vz9-3">
          <mxGeometry relative="1" as="geometry" />
        </mxCell>
        <mxCell id="rflaLbUr40uzIL3F1Vz9-6" value="Initial Data Quality Checks" style="sketch=0;pointerEvents=1;shadow=0;dashed=0;html=1;strokeColor=none;fillColor=#005F4B;labelPosition=center;verticalLabelPosition=bottom;verticalAlign=top;align=center;outlineConnect=0;shape=mxgraph.veeam2.report;" vertex="1" parent="1">
          <mxGeometry x="272.5" y="480" width="53" height="60" as="geometry" />
        </mxCell>
        <mxCell id="rflaLbUr40uzIL3F1Vz9-12" style="edgeStyle=orthogonalEdgeStyle;rounded=0;orthogonalLoop=1;jettySize=auto;html=1;" edge="1" parent="1" source="rflaLbUr40uzIL3F1Vz9-9" target="rflaLbUr40uzIL3F1Vz9-11">
          <mxGeometry relative="1" as="geometry" />
        </mxCell>
        <mxCell id="rflaLbUr40uzIL3F1Vz9-9" value="final processing" style="image;aspect=fixed;html=1;points=[];align=center;fontSize=12;image=img/lib/azure2/analytics/Azure_Databricks.svg;" vertex="1" parent="1">
          <mxGeometry x="390" y="599.25" width="79.89" height="86.5" as="geometry" />
        </mxCell>
        <mxCell id="rflaLbUr40uzIL3F1Vz9-11" value="transformed" style="sketch=0;points=[[0,0,0],[0.25,0,0],[0.5,0,0],[0.75,0,0],[1,0,0],[0,1,0],[0.25,1,0],[0.5,1,0],[0.75,1,0],[1,1,0],[0,0.25,0],[0,0.5,0],[0,0.75,0],[1,0.25,0],[1,0.5,0],[1,0.75,0]];outlineConnect=0;fontColor=#232F3E;fillColor=#7AA116;strokeColor=#ffffff;dashed=0;verticalLabelPosition=bottom;verticalAlign=top;align=center;html=1;fontSize=12;fontStyle=0;aspect=fixed;shape=mxgraph.aws4.resourceIcon;resIcon=mxgraph.aws4.s3;" vertex="1" parent="1">
          <mxGeometry x="520" y="603.5" width="78" height="78" as="geometry" />
        </mxCell>
        <mxCell id="rflaLbUr40uzIL3F1Vz9-24" style="edgeStyle=orthogonalEdgeStyle;rounded=0;orthogonalLoop=1;jettySize=auto;html=1;" edge="1" parent="1" source="rflaLbUr40uzIL3F1Vz9-13" target="rflaLbUr40uzIL3F1Vz9-25">
          <mxGeometry relative="1" as="geometry">
            <mxPoint x="900" y="642.5" as="targetPoint" />
          </mxGeometry>
        </mxCell>
        <mxCell id="rflaLbUr40uzIL3F1Vz9-13" value="Data Warehouse" style="shape=mxgraph.signs.nature.snowflake;html=1;pointerEvents=1;fillColor=#000000;strokeColor=none;verticalLabelPosition=bottom;verticalAlign=top;align=center;" vertex="1" parent="1">
          <mxGeometry x="750" y="593.5" width="87" height="98" as="geometry" />
        </mxCell>
        <mxCell id="rflaLbUr40uzIL3F1Vz9-22" style="edgeStyle=orthogonalEdgeStyle;rounded=0;orthogonalLoop=1;jettySize=auto;html=1;entryX=-0.034;entryY=0.487;entryDx=0;entryDy=0;entryPerimeter=0;" edge="1" parent="1" source="rflaLbUr40uzIL3F1Vz9-11" target="rflaLbUr40uzIL3F1Vz9-13">
          <mxGeometry relative="1" as="geometry" />
        </mxCell>
        <mxCell id="rflaLbUr40uzIL3F1Vz9-23" value="external&amp;nbsp;&lt;div&gt;stage&lt;/div&gt;" style="edgeLabel;html=1;align=center;verticalAlign=middle;resizable=0;points=[];" vertex="1" connectable="0" parent="rflaLbUr40uzIL3F1Vz9-22">
          <mxGeometry x="0.2678" relative="1" as="geometry">
            <mxPoint x="-32" y="1" as="offset" />
          </mxGeometry>
        </mxCell>
        <mxCell id="rflaLbUr40uzIL3F1Vz9-25" value="Reporting" style="swimlane;whiteSpace=wrap;html=1;" vertex="1" parent="1">
          <mxGeometry x="880" y="477.5" width="140" height="330" as="geometry" />
        </mxCell>
        <mxCell id="rflaLbUr40uzIL3F1Vz9-26" value="" style="sketch=0;outlineConnect=0;fontColor=#232F3E;gradientColor=none;fillColor=#8C4FFF;strokeColor=none;dashed=0;verticalLabelPosition=bottom;verticalAlign=top;align=center;html=1;fontSize=12;fontStyle=0;aspect=fixed;pointerEvents=1;shape=mxgraph.aws4.opensearch_dashboards;" vertex="1" parent="rflaLbUr40uzIL3F1Vz9-25">
          <mxGeometry x="30" y="120" width="78" height="59" as="geometry" />
        </mxCell>
        <mxCell id="rflaLbUr40uzIL3F1Vz9-27" value="" style="sketch=0;outlineConnect=0;fontColor=#232F3E;gradientColor=none;fillColor=#8C4FFF;strokeColor=none;dashed=0;verticalLabelPosition=bottom;verticalAlign=top;align=center;html=1;fontSize=12;fontStyle=0;aspect=fixed;pointerEvents=1;shape=mxgraph.aws4.opensearch_dashboards;" vertex="1" parent="rflaLbUr40uzIL3F1Vz9-25">
          <mxGeometry x="30" y="50" width="78" height="59" as="geometry" />
        </mxCell>
        <mxCell id="rflaLbUr40uzIL3F1Vz9-28" value="" style="sketch=0;outlineConnect=0;fontColor=#232F3E;gradientColor=none;fillColor=#8C4FFF;strokeColor=none;dashed=0;verticalLabelPosition=bottom;verticalAlign=top;align=center;html=1;fontSize=12;fontStyle=0;aspect=fixed;pointerEvents=1;shape=mxgraph.aws4.opensearch_dashboards;" vertex="1" parent="rflaLbUr40uzIL3F1Vz9-25">
          <mxGeometry x="30" y="190" width="78" height="59" as="geometry" />
        </mxCell>
        <mxCell id="rflaLbUr40uzIL3F1Vz9-29" value="" style="sketch=0;outlineConnect=0;fontColor=#232F3E;gradientColor=none;fillColor=#8C4FFF;strokeColor=none;dashed=0;verticalLabelPosition=bottom;verticalAlign=top;align=center;html=1;fontSize=12;fontStyle=0;aspect=fixed;pointerEvents=1;shape=mxgraph.aws4.opensearch_dashboards;" vertex="1" parent="rflaLbUr40uzIL3F1Vz9-25">
          <mxGeometry x="30" y="260" width="78" height="59" as="geometry" />
        </mxCell>
      </root>
    </mxGraphModel>
  </diagram>
</mxfile>
